# xmcd
#
# Track frame offsets:
#	150
#	10583
#	28268
#	50631
#	63022
#	75540
#	88054
#	106834
#	126407
#	133656
#	141958
#	160974
#	199265
#
# Disc length: 2765 seconds
#
# Revision: 1
# Processed by: cddbd v1.5.2PL0 Copyright (c) Steve Scherf et al.
# Submitted via: audiograbber 1.83.01
#
DISCID=b00acb0d
DTITLE=Henrik Freischlader - Henrik Freischlader
DYEAR=2009
DGENRE=
TTITLE0=I
TTITLE1=Got It Made (like this)
TTITLE2=So Damn Cool
TTITLE3=You Will Come
TTITLE4=Breakout
TTITLE5=In Your Arms
TTITLE6=The Bridge
TTITLE7=Cry Again
TTITLE8=The Wrong Way
TTITLE9=Never Be True
TTITLE10=Desert Love
TTITLE11=Bad Dreams (Wolkenwinde)
TTITLE12=Your Love Of Mine
EXTD=
EXTT0=
EXTT1=
EXTT2=
EXTT3=
EXTT4=
EXTT5=
EXTT6=
EXTT7=
EXTT8=
EXTT9=
EXTT10=
EXTT11=
EXTT12=
PLAYORDER=
